<?xml version="1.0" encoding="utf-8"?>
<!-- Generator: Adobe Illustrator 13.0.0, SVG Export Plug-In . SVG Version: 6.00 Build 14948)  -->
<!DOCTYPE svg PUBLIC "-//W3C//DTD SVG 1.1//EN" "http://www.w3.org/Graphics/SVG/1.1/DTD/svg11.dtd">
<svg version="1.1" id="Layer_1" xmlns="http://www.w3.org/2000/svg" xmlns:xlink="http://www.w3.org/1999/xlink" x="0px" y="0px"
	 width="635.5px" height="162.5px" viewBox="0 0 635.5 162.5" enable-background="new 0 0 635.5 162.5" xml:space="preserve">
<path d="M97.093,13.989h13.958l15.438,47.66c0.237,0.77,0.533,1.347,0.917,1.702c0.37,0.371,0.829,0.548,1.376,0.548
	c0.607,0,1.11-0.192,1.495-0.563c0.399-0.37,0.71-0.947,0.933-1.687l15.452-47.66h13.913l-17.036,51.39
	c-1.11,3.833-2.886,6.719-5.343,8.629c-2.457,1.909-5.595,2.856-9.414,2.856c-3.804,0-6.882-0.918-9.236-2.738
	c-2.338-1.821-4.174-4.736-5.506-8.747L97.093,13.989z"/>
<path d="M180.127,13.989h30.49v12.877h-29.483c-2.694,0-4.559,0.518-5.58,1.54c-1.021,1.021-1.54,2.916-1.54,5.654v3.908h36.603
	v12.965h-36.603v4.604c0,2.708,0.503,4.573,1.525,5.58c1.006,1.021,2.871,1.524,5.595,1.524h29.483v12.965h-30.49
	c-6.941,0-11.885-1.48-14.831-4.44c-2.945-2.96-4.425-7.934-4.425-14.905V33.245c0-6.971,1.465-11.915,4.396-14.86
	C168.212,15.455,173.156,13.989,180.127,13.989z"/>
<path d="M218.402,13.989h34.042c6.409,0,11.145,1.11,14.209,3.315c3.063,2.206,4.603,5.625,4.603,10.257v4.899
	c0,3.553-0.666,6.394-1.998,8.511c-1.333,2.131-3.36,3.611-6.113,4.455c1.702,0.666,3.123,1.791,4.248,3.404
	c1.125,1.599,1.939,3.597,2.427,5.995l4.425,20.78h-13.839l-3.034-16.695c-0.37-2.279-1.14-4.115-2.309-5.491
	c-1.169-1.376-2.531-2.058-4.056-2.058h-13.217V39.003h14.076c1.998,0,3.538-0.385,4.618-1.155c1.081-0.755,1.628-1.85,1.628-3.271
	v-3.286c0-1.421-0.547-2.516-1.628-3.271c-1.081-0.77-2.62-1.155-4.618-1.155h-20.321v48.74h-13.144V13.989z"/>
<polygon points="274.483,13.989 325.014,13.989 325.014,26.866 306.365,26.866 306.365,75.605 293.221,75.605 293.221,26.866 
	274.483,26.866 "/>
<path d="M349.243,13.989h30.49v12.877H350.25c-2.694,0-4.559,0.518-5.58,1.54c-1.021,1.021-1.539,2.916-1.539,5.654v3.908h36.603
	v12.965h-36.603v4.604c0,2.708,0.503,4.573,1.524,5.58c1.006,1.021,2.871,1.524,5.595,1.524h29.483v12.965h-30.49
	c-6.941,0-11.885-1.48-14.831-4.44c-2.945-2.96-4.425-7.934-4.425-14.905V33.245c0-6.971,1.465-11.915,4.396-14.86
	C337.329,15.455,342.271,13.989,349.243,13.989z"/>
<path d="M406.434,13.989h27.19v12.877h-25.932c-2.428,0-4.263,0.622-5.506,1.88s-1.865,3.123-1.865,5.58v20.943
	c0,2.427,0.622,4.263,1.865,5.506c1.243,1.244,3.078,1.865,5.506,1.865h25.932v12.965h-27.19c-6.009,0-10.73-1.717-14.135-5.136
	c-3.419-3.434-5.121-8.155-5.121-14.209V33.245c0-6.039,1.702-10.76,5.121-14.165C395.703,15.691,400.425,13.989,406.434,13.989z"/>
<polygon points="440.373,13.989 453.517,13.989 453.517,37.138 482.556,37.138 482.556,13.989 495.699,13.989 495.699,75.605 
	482.556,75.605 482.556,50.104 453.517,50.104 453.517,75.605 440.373,75.605 "/>
<polygon points="272.042,114.022 311.341,114.022 311.341,124.037 296.837,124.037 296.837,161.943 286.616,161.943 
	286.616,124.037 272.042,124.037 "/>
<path d="M317.223,126.432h17.543v8.633h-17.14c-1.277,0-2.129,0.196-2.544,0.588c-0.414,0.391-0.622,1.186-0.622,2.383v1.681h20.306
	v8.633H314.46v1.991c0,1.22,0.208,2.015,0.61,2.395s1.255,0.575,2.555,0.575h17.14v8.634h-17.543c-4.178,0-7.183-0.898-9.001-2.683
	s-2.728-4.742-2.728-8.852v-12.443c0-4.098,0.909-7.033,2.728-8.841C310.041,127.329,313.045,126.432,317.223,126.432z"/>
<path d="M352.366,126.432h15.816v8.771h-14.366c-1.416,0-2.521,0.403-3.304,1.197c-0.794,0.794-1.186,1.899-1.186,3.315v8.967
	c0,1.415,0.392,2.521,1.186,3.304c0.783,0.794,1.888,1.186,3.304,1.186h14.366v8.771h-15.816c-3.799,0-6.757-1.048-8.852-3.154
	c-2.106-2.106-3.154-5.054-3.154-8.852v-11.466c0-3.798,1.048-6.757,3.154-8.875C345.609,127.49,348.567,126.432,352.366,126.432z"
	/>
<polygon points="373.178,126.432 382.076,126.432 382.076,139.07 396.96,139.07 396.96,126.432 405.857,126.432 405.857,161.943 
	396.96,161.943 396.96,147.842 382.076,147.842 382.076,161.943 373.178,161.943 "/>
<path d="M433.887,134.927l3.2,15.551c0.253,1.163,0.599,2.015,1.048,2.533c0.449,0.518,1.07,0.771,1.854,0.771
	c0.679,0,1.22-0.265,1.611-0.806c0.391-0.541,0.587-1.289,0.587-2.232v-24.312h8.897v26.106c0,3.005-1.013,5.434-3.038,7.264
	c-2.026,1.83-4.708,2.751-8.058,2.751c-3.063,0-5.525-0.76-7.391-2.29c-1.865-1.531-3.108-3.799-3.741-6.814L425.691,138
	c-0.276-1.22-0.634-2.083-1.082-2.613c-0.449-0.529-1.06-0.794-1.83-0.794c-0.668,0-1.209,0.265-1.612,0.806
	c-0.402,0.541-0.61,1.29-0.61,2.233v24.312h-8.897v-26.107c0-3.004,1.013-5.433,3.051-7.264c2.037-1.83,4.73-2.751,8.08-2.751
	c3.063,0,5.515,0.76,7.391,2.291C432.045,129.643,433.276,131.911,433.887,134.927z"/>
<path d="M465.646,139.082v10.211c0,1.415,0.392,2.521,1.186,3.303c0.783,0.795,1.888,1.186,3.304,1.186h7.828
	c1.415,0,2.521-0.391,3.303-1.186c0.795-0.782,1.186-1.888,1.186-3.303v-10.211c0-1.416-0.391-2.521-1.186-3.304
	c-0.782-0.794-1.888-1.186-3.303-1.186h-7.828c-1.416,0-2.521,0.392-3.304,1.186C466.037,136.562,465.646,137.666,465.646,139.082
	L465.646,139.082z M468.685,125.821h10.728c3.799,0,6.758,1.048,8.853,3.154c2.106,2.106,3.154,5.054,3.154,8.852v12.72
	c0,3.799-1.048,6.745-3.154,8.853c-2.095,2.106-5.054,3.153-8.853,3.153h-10.728c-3.799,0-6.757-1.047-8.852-3.153
	c-2.106-2.107-3.154-5.054-3.154-8.853v-12.72c0-3.798,1.048-6.745,3.154-8.852C461.928,126.869,464.886,125.821,468.685,125.821z"
	/>
<path d="M497.013,126.432h8.898v22.596c0,1.612,0.288,2.717,0.863,3.281c0.575,0.575,1.669,0.863,3.28,0.863h10.936v8.771h-12.316
	c-4.202,0-7.194-0.898-8.979-2.693c-1.784-1.808-2.683-4.801-2.683-8.979V126.432z"/>
<path d="M533.261,139.082v10.211c0,1.415,0.392,2.521,1.186,3.303c0.783,0.795,1.888,1.186,3.304,1.186h7.828
	c1.416,0,2.521-0.391,3.303-1.186c0.795-0.782,1.187-1.888,1.187-3.303v-10.211c0-1.416-0.392-2.521-1.187-3.304
	c-0.782-0.794-1.887-1.186-3.303-1.186h-7.828c-1.416,0-2.521,0.392-3.304,1.186C533.652,136.562,533.261,137.666,533.261,139.082
	L533.261,139.082z M536.3,125.821h10.729c3.798,0,6.757,1.048,8.852,3.154c2.106,2.106,3.154,5.054,3.154,8.852v12.72
	c0,3.799-1.048,6.745-3.154,8.853c-2.095,2.106-5.054,3.153-8.852,3.153H536.3c-3.799,0-6.757-1.047-8.852-3.153
	c-2.106-2.107-3.154-5.054-3.154-8.853v-12.72c0-3.798,1.048-6.745,3.154-8.852C529.543,126.869,532.501,125.821,536.3,125.821z"/>
<path d="M576.15,126.432h18.855v8.771h-18.313c-1.117,0-1.958,0.253-2.498,0.771c-0.541,0.518-0.806,1.323-0.806,2.429v11.591
	c0,1.082,0.265,1.888,0.806,2.406c0.54,0.518,1.381,0.771,2.498,0.771h10.797v-4.421h-6.642v-8.426h15.539v21.618H576.15
	c-3.637,0-6.504-1.024-8.599-3.085c-2.083-2.061-3.131-4.881-3.131-8.449v-12.443c0-3.58,1.048-6.389,3.131-8.449
	C569.646,127.456,572.514,126.432,576.15,126.432z"/>
<path d="M597.446,126.432h10.141l6.85,12.847c0.23,0.38,0.472,0.679,0.76,0.874c0.276,0.208,0.575,0.312,0.897,0.312
	c0.311,0,0.61-0.104,0.887-0.312c0.287-0.195,0.529-0.494,0.76-0.874l6.849-12.847h10.142l-8.76,16.185
	c-0.726,1.266-1.52,2.325-2.395,3.188s-1.877,1.542-3.005,2.037v14.102h-8.967v-14.102c-1.174-0.518-2.198-1.209-3.085-2.083
	c-0.887-0.875-1.657-1.923-2.313-3.143L597.446,126.432z"/>
<path fill="#ED1C24" d="M499.784,13.989h15.615l12.358,19.167c0.341,0.488,0.666,0.858,0.963,1.081
	c0.311,0.237,0.606,0.355,0.888,0.355c0.296,0,0.577-0.118,0.858-0.326c0.267-0.222,0.577-0.592,0.933-1.11l12.344-19.167h15.615
	l-20.07,29.306l22.587,32.311h-16l-14.476-21.683c-0.355-0.489-0.666-0.844-0.933-1.066c-0.281-0.207-0.563-0.326-0.858-0.326
	c-0.281,0-0.577,0.119-0.888,0.355c-0.297,0.223-0.622,0.578-0.963,1.037l-14.401,21.683h-16.044l22.542-32.311L499.784,13.989z"/>
<path fill="#ED1C24" d="M603.983,24.098l17.036,51.507h-13.913l-15.452-47.748c-0.223-0.74-0.533-1.288-0.933-1.643
	c-0.385-0.34-0.888-0.518-1.495-0.518c-0.577,0-1.036,0.163-1.406,0.503c-0.354,0.326-0.65,0.874-0.888,1.628l-15.438,47.777
	h-13.957l16.947-51.507c1.332-3.967,3.167-6.853,5.491-8.659c2.323-1.806,5.417-2.708,9.25-2.708c3.849,0,7.001,0.947,9.443,2.842
	S602.873,20.309,603.983,24.098z"/>
<path fill-rule="evenodd" clip-rule="evenodd" fill="#ED1C24" stroke="#000000" stroke-width="7.9999" stroke-linejoin="round" stroke-miterlimit="2.6131" d="
	M5.078,5.194c23.225,12.418,49.5,26.493,78.826,42.224C61.419,59.662,35.274,73.736,5.47,89.641
	c18.563-19.085,26.145-35.382,22.746-48.89C24.773,28.55,17.06,16.697,5.078,5.194z"/>
</svg>
